<svg xmlns="http://www.w3.org/2000/svg" xmlns:xlink="http://www.w3.org/1999/xlink" viewBox="0 0 245.7 302.76"><defs><style>.cls-1{isolation:isolate;}.cls-15,.cls-2,.cls-21,.cls-34,.cls-35,.cls-37,.cls-42,.cls-55,.cls-61,.cls-62{opacity:0.5;}.cls-12,.cls-15,.cls-18,.cls-2,.cls-21,.cls-37,.cls-42,.cls-55,.cls-58,.cls-59,.cls-60,.cls-8,.cls-9{mix-blend-mode:multiply;}.cls-2{fill:url(#Áåçûìÿííûé_ãðàäèåíò_123);}.cls-3{fill:#e5f6ff;}.cls-4{fill:url(#Áåçûìÿííûé_ãðàäèåíò_46);}.cls-5{fill:url(#Áåçûìÿííûé_ãðàäèåíò_28);}.cls-6{fill:url(#Áåçûìÿííûé_ãðàäèåíò_46-2);}.cls-7{fill:url(#Áåçûìÿííûé_ãðàäèåíò_28-2);}.cls-12,.cls-18,.cls-58,.cls-59,.cls-60,.cls-8,.cls-9{opacity:0.3;}.cls-8{fill:url(#Áåçûìÿííûé_ãðàäèåíò_153);}.cls-9{fill:url(#Áåçûìÿííûé_ãðàäèåíò_153-2);}.cls-10{fill:url(#Áåçûìÿííûé_ãðàäèåíò_46-3);}.cls-11{fill:url(#Áåçûìÿííûé_ãðàäèåíò_28-3);}.cls-12{fill:url(#Áåçûìÿííûé_ãðàäèåíò_153-3);}.cls-13{fill:url(#Áåçûìÿííûé_ãðàäèåíò_46-4);}.cls-14{fill:url(#Áåçûìÿííûé_ãðàäèåíò_28-4);}.cls-15{fill:url(#Áåçûìÿííûé_ãðàäèåíò_416);}.cls-16{fill:url(#Áåçûìÿííûé_ãðàäèåíò_46-5);}.cls-17{fill:url(#Áåçûìÿííûé_ãðàäèåíò_46-6);}.cls-18{fill:url(#Áåçûìÿííûé_ãðàäèåíò_153-4);}.cls-19{fill:url(#Áåçûìÿííûé_ãðàäèåíò_28-5);}.cls-20{fill:url(#Áåçûìÿííûé_ãðàäèåíò_91);}.cls-21{fill:url(#Áåçûìÿííûé_ãðàäèåíò_416-2);}.cls-22{fill:#fff;}.cls-23,.cls-24,.cls-41,.cls-43{opacity:0.72;}.cls-23,.cls-24,.cls-34,.cls-35,.cls-36,.cls-41,.cls-43,.cls-61,.cls-62{mix-blend-mode:screen;}.cls-23{fill:url(#Áåçûìÿííûé_ãðàäèåíò_143);}.cls-24{fill:url(#Áåçûìÿííûé_ãðàäèåíò_134);}.cls-25{fill:url(#Áåçûìÿííûé_ãðàäèåíò_36);}.cls-26{fill:url(#Áåçûìÿííûé_ãðàäèåíò_264);}.cls-27{fill:url(#Áåçûìÿííûé_ãðàäèåíò_28-6);}.cls-28{fill:url(#Áåçûìÿííûé_ãðàäèåíò_17);}.cls-29{fill:url(#Áåçûìÿííûé_ãðàäèåíò_264-2);}.cls-30{fill:url(#Áåçûìÿííûé_ãðàäèåíò_28-7);}.cls-31{fill:url(#Áåçûìÿííûé_ãðàäèåíò_17-2);}.cls-32{fill:url(#Áåçûìÿííûé_ãðàäèåíò_46-7);}.cls-33{fill:url(#Áåçûìÿííûé_ãðàäèåíò_132);}.cls-34{fill:url(#Áåçûìÿííûé_ãðàäèåíò_54);}.cls-35{fill:url(#Áåçûìÿííûé_ãðàäèåíò_54-2);}.cls-36{opacity:0.2;fill:url(#Áåçûìÿííûé_ãðàäèåíò_126);}.cls-37{fill:url(#Áåçûìÿííûé_ãðàäèåíò_416-3);}.cls-38{fill:url(#Áåçûìÿííûé_ãðàäèåíò_28-8);}.cls-39{fill:url(#Áåçûìÿííûé_ãðàäèåíò_8);}.cls-40{fill:url(#Áåçûìÿííûé_ãðàäèåíò_65);}.cls-41{fill:url(#Áåçûìÿííûé_ãðàäèåíò_134-2);}.cls-42{fill:url(#Áåçûìÿííûé_ãðàäèåíò_416-4);}.cls-43{fill:url(#Áåçûìÿííûé_ãðàäèåíò_143-2);}.cls-44{fill:url(#Áåçûìÿííûé_ãðàäèåíò_46-8);}.cls-45{fill:url(#Áåçûìÿííûé_ãðàäèåíò_91-2);}.cls-46{fill:#2f95cd;}.cls-47{fill:url(#Áåçûìÿííûé_ãðàäèåíò_132-2);}.cls-48{fill:url(#Áåçûìÿííûé_ãðàäèåíò_46-9);}.cls-49{fill:url(#Áåçûìÿííûé_ãðàäèåíò_91-3);}.cls-50{fill:url(#Áåçûìÿííûé_ãðàäèåíò_8-2);}.cls-51{fill:url(#Áåçûìÿííûé_ãðàäèåíò_65-2);}.cls-52{fill:url(#Áåçûìÿííûé_ãðàäèåíò_46-10);}.cls-53{fill:url(#Áåçûìÿííûé_ãðàäèåíò_28-9);}.cls-54{fill:url(#Áåçûìÿííûé_ãðàäèåíò_14);}.cls-55{fill:url(#Áåçûìÿííûé_ãðàäèåíò_416-5);}.cls-56{fill:url(#Áåçûìÿííûé_ãðàäèåíò_46-11);}.cls-57{fill:url(#Áåçûìÿííûé_ãðàäèåíò_46-12);}.cls-58{fill:url(#Áåçûìÿííûé_ãðàäèåíò_153-5);}.cls-59{fill:url(#Áåçûìÿííûé_ãðàäèåíò_153-6);}.cls-60{fill:url(#Áåçûìÿííûé_ãðàäèåíò_153-7);}.cls-61{fill:url(#Áåçûìÿííûé_ãðàäèåíò_11);}.cls-62{fill:url(#Áåçûìÿííûé_ãðàäèåíò_7);}</style><radialGradient id="Áåçûìÿííûé_ãðàäèåíò_123" cx="114.08" cy="-722.94" r="56.15" gradientTransform="translate(0 451.12) scale(1 0.22)" gradientUnits="userSpaceOnUse"><stop offset="0" stop-color="#be9dea"/><stop offset="0.39" stop-color="#e0bff5"/><stop offset="1" stop-color="#fff"/></radialGradient><linearGradient id="Áåçûìÿííûé_ãðàäèåíò_46" x1="92.26" y1="278.97" x2="97.99" y2="233.32" gradientUnits="userSpaceOnUse"><stop offset="0" stop-color="#cbc1f7"/><stop offset="1" stop-color="#e8dcf7"/></linearGradient><linearGradient id="Áåçûìÿííûé_ãðàäèåíò_28" x1="96.48" y1="246.69" x2="96.48" y2="231.25" gradientUnits="userSpaceOnUse"><stop offset="0" stop-color="#be9dea"/><stop offset="1" stop-color="#9e8cef"/></linearGradient><linearGradient id="Áåçûìÿííûé_ãðàäèåíò_46-2" x1="127.33" y1="281.27" x2="133.85" y2="229.35" xlink:href="#Áåçûìÿííûé_ãðàäèåíò_46"/><linearGradient id="Áåçûìÿííûé_ãðàäèåíò_28-2" x1="132.8" y1="246.73" x2="132.8" y2="231.29" xlink:href="#Áåçûìÿííûé_ãðàäèåíò_28"/><linearGradient id="Áåçûìÿííûé_ãðàäèåíò_153" x1="96.48" y1="277.17" x2="96.48" y2="231.25" gradientUnits="userSpaceOnUse"><stop offset="0" stop-color="#9d68c2"/><stop offset="1" stop-color="#ccedff"/></linearGradient><linearGradient id="Áåçûìÿííûé_ãðàäèåíò_153-2" x1="132.8" y1="278.22" x2="132.8" y2="231.29" xlink:href="#Áåçûìÿííûé_ãðàäèåíò_153"/><linearGradient id="Áåçûìÿííûé_ãðàäèåíò_46-3" x1="52.78" y1="218.92" x2="61.4" y2="150.28" xlink:href="#Áåçûìÿííûé_ãðàäèåíò_46"/><linearGradient id="Áåçûìÿííûé_ãðàäèåíò_28-3" x1="32.84" y1="218.97" x2="32.84" y2="193.52" xlink:href="#Áåçûìÿííûé_ãðàäèåíò_28"/><linearGradient id="Áåçûìÿííûé_ãðàäèåíò_153-3" x1="56.18" y1="218.97" x2="56.18" y2="153.48" xlink:href="#Áåçûìÿííûé_ãðàäèåíò_153"/><linearGradient id="Áåçûìÿííûé_ãðàäèåíò_46-4" x1="18.73" y1="240.19" x2="23.89" y2="199.13" xlink:href="#Áåçûìÿííûé_ãðàäèåíò_46"/><linearGradient id="Áåçûìÿííûé_ãðàäèåíò_28-4" x1="23.77" y1="239.01" x2="23.77" y2="201.37" xlink:href="#Áåçûìÿííûé_ãðàäèåíò_28"/><linearGradient id="Áåçûìÿííûé_ãðàäèåíò_416" x1="23.48" y1="230.76" x2="23.48" y2="206.25" gradientUnits="userSpaceOnUse"><stop offset="0" stop-color="#8da4e5"/><stop offset="1" stop-color="#755cbb"/></linearGradient><linearGradient id="Áåçûìÿííûé_ãðàäèåíò_46-5" x1="28.17" y1="231.68" x2="31.83" y2="202.52" xlink:href="#Áåçûìÿííûé_ãðàäèåíò_46"/><linearGradient id="Áåçûìÿííûé_ãðàäèåíò_46-6" x1="109.25" y1="245.63" x2="122.43" y2="140.66" xlink:href="#Áåçûìÿííûé_ãðàäèåíò_46"/><linearGradient id="Áåçûìÿííûé_ãðàäèåíò_153-4" x1="114.61" y1="245.81" x2="114.61" y2="161.36" xlink:href="#Áåçûìÿííûé_ãðàäèåíò_153"/><linearGradient id="Áåçûìÿííûé_ãðàäèåíò_28-5" x1="113.8" y1="244.1" x2="113.8" y2="177.58" xlink:href="#Áåçûìÿííûé_ãðàäèåíò_28"/><radialGradient id="Áåçûìÿííûé_ãðàäèåíò_91" cx="115.13" cy="235.49" r="50.76" gradientUnits="userSpaceOnUse"><stop offset="0" stop-color="#45ffcd"/><stop offset="1" stop-color="#22e0ff"/></radialGradient><linearGradient id="Áåçûìÿííûé_ãðàäèåíò_416-2" x1="113.15" y1="160.46" x2="113.15" y2="139.88" xlink:href="#Áåçûìÿííûé_ãðàäèåíò_416"/><linearGradient id="Áåçûìÿííûé_ãðàäèåíò_143" x1="115.41" y1="242.11" x2="115.41" y2="230.58" gradientUnits="userSpaceOnUse"><stop offset="0" stop-color="#d4e2ff"/><stop offset="1"/></linearGradient><linearGradient id="Áåçûìÿííûé_ãðàäèåíò_134" x1="86.88" y1="195.78" x2="144.72" y2="195.78" gradientUnits="userSpaceOnUse"><stop offset="0"/><stop offset="1" stop-color="#d4e2ff"/></linearGradient><linearGradient id="Áåçûìÿííûé_ãðàäèåíò_36" x1="137.11" y1="166.09" x2="150.55" y2="166.09" gradientUnits="userSpaceOnUse"><stop offset="0" stop-color="#8879ea"/><stop offset="1" stop-color="#9e8cef"/></linearGradient><linearGradient id="Áåçûìÿííûé_ãðàäèåíò_264" x1="163.4" y1="85.26" x2="163.4" y2="37.53" gradientUnits="userSpaceOnUse"><stop offset="0" stop-color="#b9acf4"/><stop offset="1" stop-color="#e1d1f5"/></linearGradient><linearGradient id="Áåçûìÿííûé_ãðàäèåíò_28-6" x1="166.87" y1="63.47" x2="166.87" y2="37.53" xlink:href="#Áåçûìÿííûé_ãðàäèåíò_28"/><linearGradient id="Áåçûìÿííûé_ãðàäèåíò_17" x1="173.32" y1="87.55" x2="173.32" y2="40.65" xlink:href="#Áåçûìÿííûé_ãðàäèåíò_91"/><linearGradient id="Áåçûìÿííûé_ãðàäèåíò_264-2" x1="1554.98" y1="87.12" x2="1554.98" y2="39.39" gradientTransform="matrix(-1, 0, 0, 1, 1618.94, 0)" xlink:href="#Áåçûìÿííûé_ãðàäèåíò_264"/><linearGradient id="Áåçûìÿííûé_ãðàäèåíò_28-7" x1="1558.45" y1="65.34" x2="1558.45" y2="39.39" gradientTransform="matrix(-1, 0, 0, 1, 1618.94, 0)" xlink:href="#Áåçûìÿííûé_ãðàäèåíò_28"/><linearGradient id="Áåçûìÿííûé_ãðàäèåíò_17-2" x1="1564.86" y1="90.47" x2="1564.86" y2="42.51" gradientTransform="matrix(-1, 0, 0, 1, 1618.94, 0)" xlink:href="#Áåçûìÿííûé_ãðàäèåíò_91"/><linearGradient id="Áåçûìÿííûé_ãðàäèåíò_46-7" x1="109.4" y1="148.3" x2="123.96" y2="32.37" xlink:href="#Áåçûìÿííûé_ãðàäèåíò_46"/><linearGradient id="Áåçûìÿííûé_ãðàäèåíò_132" x1="114.09" y1="140.36" x2="114.09" y2="44.53" gradientUnits="userSpaceOnUse"><stop offset="0" stop-color="#0665bd"/><stop offset="1" stop-color="#1a1f77"/></linearGradient><linearGradient id="Áåçûìÿííûé_ãðàäèåíò_54" x1="73.95" y1="65.96" x2="158.49" y2="65.96" gradientUnits="userSpaceOnUse"><stop offset="0"/><stop offset="1" stop-color="#6a9bff"/></linearGradient><linearGradient id="Áåçûìÿííûé_ãðàäèåíò_54-2" x1="85.07" y1="133.56" x2="146.53" y2="133.56" xlink:href="#Áåçûìÿííûé_ãðàäèåíò_54"/><linearGradient id="Áåçûìÿííûé_ãðàäèåíò_126" x1="46.21" y1="145.43" x2="46.21" y2="114.07" gradientTransform="translate(28.7 -26.42) rotate(3.92)" gradientUnits="userSpaceOnUse"><stop offset="0"/><stop offset="1" stop-color="#00e3ff"/></linearGradient><linearGradient id="Áåçûìÿííûé_ãðàäèåíò_416-3" x1="67.75" y1="137.93" x2="67.75" y2="123.24" xlink:href="#Áåçûìÿííûé_ãðàäèåíò_416"/><linearGradient id="Áåçûìÿííûé_ãðàäèåíò_28-8" x1="40.72" y1="129.81" x2="47.67" y2="74.43" xlink:href="#Áåçûìÿííûé_ãðàäèåíò_28"/><linearGradient id="Áåçûìÿííûé_ãðàäèåíò_8" x1="12.22" y1="214.68" x2="12.22" y2="199.07" gradientTransform="matrix(0.97, 0.23, -0.23, 0.97, 105.03, -81.63)" gradientUnits="userSpaceOnUse"><stop offset="0" stop-color="#dd1a8f"/><stop offset="1" stop-color="#fe117e"/></linearGradient><linearGradient id="Áåçûìÿííûé_ãðàäèåíò_65" x1="68.69" y1="122.58" x2="68.69" y2="115.95" gradientUnits="userSpaceOnUse"><stop offset="0" stop-color="#d93de3"/><stop offset="1" stop-color="#ff6dba"/></linearGradient><linearGradient id="Áåçûìÿííûé_ãðàäèåíò_134-2" x1="166.32" y1="52.36" x2="178.53" y2="52.36" xlink:href="#Áåçûìÿííûé_ãðàäèåíò_134"/><linearGradient id="Áåçûìÿííûé_ãðàäèåíò_416-4" x1="138.25" y1="143.59" x2="138.25" y2="115.06" xlink:href="#Áåçûìÿííûé_ãðàäèåíò_416"/><linearGradient id="Áåçûìÿííûé_ãðàäèåíò_143-2" x1="48.19" y1="51.51" x2="61.64" y2="51.51" xlink:href="#Áåçûìÿííûé_ãðàäèåíò_143"/><linearGradient id="Áåçûìÿííûé_ãðàäèåíò_46-8" x1="35.76" y1="98.15" x2="35.76" y2="82.65" xlink:href="#Áåçûìÿííûé_ãðàäèåíò_46"/><radialGradient id="Áåçûìÿííûé_ãðàäèåíò_91-2" cx="86.67" cy="88.21" r="16.25" xlink:href="#Áåçûìÿííûé_ãðàäèåíò_91"/><linearGradient id="Áåçûìÿííûé_ãðàäèåíò_132-2" x1="151.61" y1="132.4" x2="151.61" y2="57.07" xlink:href="#Áåçûìÿííûé_ãðàäèåíò_132"/><linearGradient id="Áåçûìÿííûé_ãðàäèåíò_46-9" x1="171.5" y1="120.54" x2="179.19" y2="59.25" xlink:href="#Áåçûìÿííûé_ãðàäèåíò_46"/><radialGradient id="Áåçûìÿííûé_ãðàäèåíò_91-3" cx="154.55" cy="99.46" r="23.85" xlink:href="#Áåçûìÿííûé_ãðàäèåíò_91"/><linearGradient id="Áåçûìÿííûé_ãðàäèåíò_8-2" x1="148.27" y1="137.79" x2="166.93" y2="58.51" gradientTransform="matrix(1, 0, 0, 1, 0, 0)" xlink:href="#Áåçûìÿííûé_ãðàäèåíò_8"/><linearGradient id="Áåçûìÿííûé_ãðàäèåíò_65-2" x1="148.27" y1="134.94" x2="166.93" y2="55.66" xlink:href="#Áåçûìÿííûé_ãðàäèåíò_65"/><linearGradient id="Áåçûìÿííûé_ãðàäèåíò_46-10" x1="168.35" y1="182.47" x2="173.16" y2="144.23" xlink:href="#Áåçûìÿííûé_ãðàäèåíò_46"/><linearGradient id="Áåçûìÿííûé_ãðàäèåíò_28-9" x1="198.36" y1="161.73" x2="198.36" y2="147.42" xlink:href="#Áåçûìÿííûé_ãðàäèåíò_28"/><linearGradient id="Áåçûìÿííûé_ãðàäèåíò_14" x1="194.26" y1="157.68" x2="196.74" y2="122.78" gradientUnits="userSpaceOnUse"><stop offset="0" stop-color="#a242ea"/><stop offset="1" stop-color="#fe117e"/></linearGradient><linearGradient id="Áåçûìÿííûé_ãðàäèåíò_416-5" x1="192.43" y1="156.2" x2="192.43" y2="123.27" xlink:href="#Áåçûìÿííûé_ãðàäèåíò_416"/><linearGradient id="Áåçûìÿííûé_ãðàäèåíò_46-11" x1="181.29" y1="144.13" x2="182.43" y2="135.05" xlink:href="#Áåçûìÿííûé_ãðàäèåíò_46"/><linearGradient id="Áåçûìÿííûé_ãðàäèåíò_46-12" x1="197.5" y1="141.52" x2="200.46" y2="117.97" xlink:href="#Áåçûìÿííûé_ãðàäèåíò_46"/><linearGradient id="Áåçûìÿííûé_ãðàäèåíò_153-5" x1="171.81" y1="182.78" x2="171.81" y2="146.72" xlink:href="#Áåçûìÿííûé_ãðàäèåíò_153"/><linearGradient id="Áåçûìÿííûé_ãðàäèåíò_153-6" x1="181.91" y1="144.16" x2="181.91" y2="134.75" xlink:href="#Áåçûìÿííûé_ãðàäèåíò_153"/><linearGradient id="Áåçûìÿííûé_ãðàäèåíò_153-7" x1="198.66" y1="142.72" x2="198.66" y2="123.27" xlink:href="#Áåçûìÿííûé_ãðàäèåíò_153"/><radialGradient id="Áåçûìÿííûé_ãðàäèåíò_11" cx="154.09" cy="92.62" r="33.21" gradientTransform="translate(0.51 5.47) scale(1.02 0.98)" gradientUnits="userSpaceOnUse"><stop offset="0"/><stop offset="0.23" stop-color="#010303"/><stop offset="0.37" stop-color="#050b0b"/><stop offset="0.48" stop-color="#0b1919"/><stop offset="0.58" stop-color="#132d2d"/><stop offset="0.67" stop-color="#1f4848"/><stop offset="0.75" stop-color="#2c6868"/><stop offset="0.83" stop-color="#3d8e8e"/><stop offset="0.91" stop-color="#50baba"/><stop offset="0.97" stop-color="#65ebeb"/><stop offset="1" stop-color="#6dffff"/></radialGradient><linearGradient id="Áåçûìÿííûé_ãðàäèåíò_7" x1="127.57" y1="80.08" x2="187.63" y2="80.08" gradientUnits="userSpaceOnUse"><stop offset="0" stop-color="#6a9bff"/><stop offset="1"/></linearGradient></defs><g class="cls-1"><g id="Capa_2" data-name="Capa 2"><g id="chatbot"><ellipse class="cls-2" cx="114.08" cy="290.27" rx="56.15" ry="12.49"/><path class="cls-3" d="M18.59,233.76c14.6,30.63,155.47,26.18,191,2.38S166.21,12.36,70.82,16.53C1.17,19.58-18.88,155.12,18.59,233.76Z"/><path class="cls-3" d="M226.55,219.64c-6-1-9.79-33-2.65-39.2s21.8,7.94,21.8,18.67S237,221.35,226.55,219.64Z"/><path class="cls-3" d="M55.72,7.82c1.5,4.5-13.14,14.12-18.25,10.4S35.35,3,40,.77,53.56,1.29,55.72,7.82Z"/><path class="cls-4" d="M114.64,246.5v0c0,1.09-.32,22.14-4.53,30.63-1.09,2.22-2.45,3.58-4.14,3.51-6-.24-19.54-25.45-24.89-39.75a34.87,34.87,0,0,1-2.19-7.67c-.12-1.24.07-1.94.67-2a29,29,0,0,1,3.73.17l.5.07c14.85,1.79,29.25,13.61,30.73,14.87Z"/><path class="cls-5" d="M114.64,246.5c-19.78,1.72-32.94-8.74-35.75-13.24-.73-1.14-.76-1.9,0-2a20.93,20.93,0,0,1,4.44.17l.5.07c13.11,2,29.12,13.68,30.73,14.87Z"/><path class="cls-6" d="M150.4,233.29a38.42,38.42,0,0,1-2.65,8.9c-5.63,14.46-18.61,38.29-24.44,38.53-1.41.06-2.6-.88-3.59-2.5-4.85-7.88-5.08-31.68-5.08-31.68a.68.68,0,0,0,.12-.09c1.49-1.26,15.93-13.14,30.81-14.88l.42-.06a27.6,27.6,0,0,1,3.74-.16C150.32,231.36,150.53,232.06,150.4,233.29Z"/><path class="cls-7" d="M150.4,233.29c-2.75,4.47-15.94,15-35.76,13.25a.68.68,0,0,0,.12-.09c1.61-1.2,17.69-12.93,30.81-14.88l.42-.06a20.23,20.23,0,0,1,4.44-.16C151.15,231.4,151.12,232.14,150.4,233.29Z"/><path class="cls-8" d="M114.64,246.5v0c0,1.09-.32,22.14-4.53,30.63,0,0-1.17-22.24-7.09-27.28s-21.94-9-21.94-9a34.87,34.87,0,0,1-2.19-7.67c-.73-1.14-.76-1.9,0-2a20.93,20.93,0,0,1,4.44.17l.5.07c14.85,1.79,29.25,13.61,30.73,14.87Z"/><path class="cls-9" d="M150.4,233.29a38.42,38.42,0,0,1-2.65,8.9c-2.8.59-17.58,4-22.81,13.08-4.38,7.56-5.12,18.16-5.22,23-4.85-7.88-5.08-31.68-5.08-31.68a.68.68,0,0,0,.12-.09c1.49-1.26,15.93-13.14,30.81-14.88l.42-.06a20.23,20.23,0,0,1,4.44-.16C151.15,231.4,151.12,232.14,150.4,233.29Z"/><path class="cls-10" d="M86.6,169.19A77.54,77.54,0,0,1,83.94,183a55.88,55.88,0,0,1-3.92,4.9A97.08,97.08,0,0,1,36.7,216c-.54.19-1.08.34-1.63.51-3.6,1-10.23-9.78-6.8-19A13.83,13.83,0,0,1,29.52,195a51.88,51.88,0,0,1,8-9c9.76-9.25,25.85-21.28,40.06-28.47h0a80.8,80.8,0,0,1,9.35-4.09A90.9,90.9,0,0,1,86.6,169.19Z"/><path class="cls-11" d="M36.7,216a8.07,8.07,0,0,1-1.31,1.24c-5.37,4-13.24,1.68-8.89-15a14.83,14.83,0,0,1,1.77-4.75,7.71,7.71,0,0,1,6-4C41.6,192.88,42.42,209.51,36.7,216Z"/><path class="cls-12" d="M86.6,169.19,80,187.87A97.08,97.08,0,0,1,36.7,216a8.07,8.07,0,0,1-1.31,1.24c-5.37,4-13.24,1.68-8.89-15a14.83,14.83,0,0,1,1.77-4.75A13.83,13.83,0,0,1,29.52,195a51.88,51.88,0,0,1,8-9c-.28.5-2.19,4.31,1.87,5.77,4.35,1.55,27.3-3.91,37.39-14.72s9.76-20.87.81-19.52a80.8,80.8,0,0,1,9.35-4.09A90.9,90.9,0,0,1,86.6,169.19Z"/><path class="cls-13" d="M32.8,200.25c-5.68-1-22.89,11.44-28.37,36.56,0,0,.38,2,5.48,2.2s13.86-9.17,19.79-14.67S42.26,202,32.8,200.25Z"/><path class="cls-14" d="M9.91,239s8.92-13.3,10.71-16.6c0,0,3.39-16.5,8.71-19.8s7.09.39,8.21,4.5S30,236.08,9.91,239Z"/><path class="cls-15" d="M20.19,225.1S22.33,230,25,230.76c0,0-2.28-16,1.73-24.51A49.3,49.3,0,0,0,20.19,225.1Z"/><path class="cls-16" d="M29,203.62s5.5-3.85,8.52,3.49a67.3,67.3,0,0,1-7.74,24.11s-3.43,1-4.76-.46C22.1,227.57,23,207.84,29,203.62Z"/><path class="cls-17" d="M151.11,220c-2.62,15.48-16.48,25.79-36.35,25.79-17.29,0-31.94-6.44-35.81-20.64s-2.38-40.42,2.79-56.76a52.71,52.71,0,0,1,2.78-7v0a49.62,49.62,0,0,1,3.27-5.76v0c6.31-9.5,15.55-15.7,26-15.7,10.87,0,19.19,4.47,24.85,11.08a36.32,36.32,0,0,1,6.17,10.39A101.27,101.27,0,0,1,149.09,175a.93.93,0,0,0,0,.14C152.69,190,153.45,206.2,151.11,220Z"/><path class="cls-18" d="M151.11,220c-2.62,15.48-16.48,25.79-36.35,25.79-17.29,0-31.94-6.44-35.81-20.64s-2.38-40.42,2.79-56.76a52.71,52.71,0,0,1,2.78-7v0s-10.46,34.69-2.1,56.78,47.33,21.63,60.52,7c12.55-14,6.75-46.79,6.16-49.93C152.69,190,153.45,206.2,151.11,220Z"/><path class="cls-19" d="M79.69,210.83c3-20.77,19.62-34.85,38.13-33.1,20,1.88,30.68,20.92,30.39,37.27S136,244.1,114.57,244.1,76.92,230.26,79.69,210.83Z"/><path class="cls-20" d="M79.88,212.55c3-20.77,19.62-34.85,38.13-33.1,20,1.88,30.67,20.92,30.39,37.27s-12.23,29.1-33.64,29.1S77.11,232,79.88,212.55Z"/><path class="cls-21" d="M138.65,151c-4.23,6.64-27.53,10.51-41,9.28-11.72-1.07-9.94-4.24-9.85-4.64v0c6.31-9.5,15.55-15.7,26-15.7C124.67,139.88,133,144.35,138.65,151Z"/><path class="cls-22" d="M130.37,162.47c-1.08.36-1.14,9.09,0,10.5s2.95,1,3.56-1.08S132,161.93,130.37,162.47Z"/><path class="cls-22" d="M132.37,175.3c-.9.21-1,2.38-.59,3.13a1.33,1.33,0,0,0,2.24-.32C134.28,177.19,133.28,175.08,132.37,175.3Z"/><path class="cls-23" d="M91.59,233.71s4.79,8.33,22.6,8.4,25-10.54,25-10.54-8.21,5.35-20,2.14S95.9,228.69,91.59,233.71Z"/><path class="cls-24" d="M87,199.37c3.52,5.61,18,2.62,34.3,4.22s19.1,6.89,22.54,5.82-2-25.63-26.37-27.3S86.08,198,87,199.37Z"/><path class="cls-25" d="M139.94,152.57a10.4,10.4,0,0,0-2.83-2.4s4.49,22.6,13.44,31.83C150.55,182,146.66,160.7,139.94,152.57Z"/><path class="cls-26" d="M149.8,46.25s8.61-7.43,19.15-8.72c0,0,3.22,1.58,7,13.19s-3.15,34.54-3.15,34.54Z"/><path class="cls-27" d="M169,37.53a37.23,37.23,0,0,0-8.53,23.87l3.3,2.07,9.6-19.88S170.13,37.35,169,37.53Z"/><path class="cls-28" d="M163.4,62.47s-2.26-12.58,6-21.82c0,0,9.36,4.4,13.23,20.75s-6.21,26.15-6.21,26.15Z"/><path class="cls-22" d="M158.59,41.19c-1.59.86-1.46,2.57,1.83,2.14s5.09-3,4.73-3.51S160.38,40.23,158.59,41.19Z"/><path class="cls-29" d="M77.56,48.11S69,40.68,58.41,39.39c0,0-3.22,1.58-6.95,13.19s3.15,34.54,3.15,34.54Z"/><path class="cls-30" d="M58.41,39.39a37.23,37.23,0,0,1,8.53,23.87l-3.3,2.08L54,45.46S57.23,39.22,58.41,39.39Z"/><path class="cls-31" d="M64,64.33s2.27-12.58-6-21.82c0,0-9.36,4.41-13.23,20.75S52,90.47,52,90.47Z"/><path class="cls-22" d="M68.77,43.05c1.59.86,1.46,2.58-1.83,2.15s-5.09-3-4.73-3.52S67,42.09,68.77,43.05Z"/><path class="cls-32" d="M53.37,127.67c13.19,30.42,111.9,20.94,123.7-4.06C190,96.28,160.31,28.72,113,31.87,73,34.54,36.42,88.56,53.37,127.67Z"/><path class="cls-33" d="M58.82,123.38c12.61,25,98.78,20.83,111.37-2.11,10.69-19.49-14.56-78.8-57.85-76.69S46.71,99.43,58.82,123.38Z"/><path class="cls-22" d="M126.94,37.53c-.9,1.07,9.57,5.62,11,5S130,33.93,126.94,37.53Z"/><path class="cls-34" d="M74,69.57c-1,6,10.27,5.27,28.29,4.67,21.64-.71,43.39,17.92,56.05,4.55,2.08-2.21-18.64-31.14-43.66-30.5S74.87,64.41,74,69.57Z"/><path class="cls-35" d="M85.16,131.6c-1.14,4.3,7.87,8.61,30,7.53,26.8-1.31,32.49-6.93,31.17-8.48-.79-.93-8.82,4.12-30.82-.7C101,126.76,86.37,127.07,85.16,131.6Z"/><path class="cls-36" d="M61.22,118.21a58.27,58.27,0,0,1,.17-14.63c1.1-8.39,3.35-13.8,4.69-13s1.13,9,1.93,17.06c.61,6.3,1.82,12.21,1.82,12.21S64,125.35,61.22,118.21Z"/><path class="cls-37" d="M63.07,137.93s1.33-1.44,8.49-5.64c4.79-2.82,9.82-6.16,10.54-7.38,1.06-2.88-20.52-1.18-20.52-1.18l-8.21,3.94A28.12,28.12,0,0,0,63.07,137.93Z"/><path class="cls-38" d="M46.58,74.29s5.57,3.59,1.92,11.89c0,0-26,14.16-24.51,29.6,1.25,12.89,37.2,6.65,37.2,6.65l1.29,4.3s-30.54,6-41.07-1.21c0,0-3.59-8.51,5.3-23.84A178.93,178.93,0,0,1,46.58,74.29Z"/><path class="cls-39" d="M56.64,121.23c-3.28,3.71,3.67,7.76,9.39,8.38,6.41.7,17.8-1.83,17.11-8.29S64.31,112.55,56.64,121.23Z"/><path class="cls-40" d="M57.07,121.92c-.2,1,22.69,1.31,23.23-2.74S58.57,113.75,57.07,121.92Z"/><path class="cls-41" d="M177,48s-3-3.76-7.17-2.76-4.41,14-1.94,14.35,3.53-7.2,5.42-8.39,5.21-.72,5.21-.72Z"/><path class="cls-42" d="M139.23,143.59s-14.14-14.27-18.67-28.53l35.38,23.3S143.92,142.58,139.23,143.59Z"/><path class="cls-43" d="M48.19,53.58s1.6-1.81,5.18-1.22,5.65,7.94,7.48,7.2.49-12.65-4.35-16.16C56.5,43.4,50.25,48.73,48.19,53.58Z"/><path class="cls-44" d="M41.58,82.65S29.14,97.09,29.93,98.1,42.37,84.11,41.58,82.65Z"/><path class="cls-45" d="M74.85,87.55a58.23,58.23,0,0,1,22.61,1.7c1.66.5-3.48-5.52-11.3-6.6S74.33,84.84,74.85,87.55Z"/><path class="cls-46" d="M102.24,111.82c2-5.92,9.39-5.66,10.91-.35,1.62,5.64-4.91,12.14-7.87,11.11S100.8,116.19,102.24,111.82Z"/><path class="cls-47" d="M121.8,104.47c-7-19.38,11.37-44.24,39.6-47.4,0,0,26.76,17.22,20.57,64.78C182,121.85,139.89,154.69,121.8,104.47Z"/><path class="cls-48" d="M161.4,57.07s9.54.08,20.75,9.42,16.51,36.71-.18,55.36C182,121.85,189.44,83.63,161.4,57.07Z"/><path class="cls-49" d="M138.05,98.15c.81,8.85,27.14,8,31.4,0,3.41-6.44-6.5-27.41-17-25.91S136.91,85.69,138.05,98.15Z"/><path class="cls-50" d="M157.6,57.43a40.72,40.72,0,1,0,40.71,40.72A40.72,40.72,0,0,0,157.6,57.43Zm0,74.62a33.91,33.91,0,1,1,33.9-33.9A33.9,33.9,0,0,1,157.6,132.05Z"/><path class="cls-51" d="M157.6,54.58A40.72,40.72,0,1,0,198.31,95.3,40.72,40.72,0,0,0,157.6,54.58Zm0,74.62a33.9,33.9,0,1,1,33.9-33.9A33.9,33.9,0,0,1,157.6,129.2Z"/><path class="cls-52" d="M202.92,158.47s-8.81,16.65-20,22.2-28.26-1.13-33.78-5.52c-7.53-6-10.3-26.64-7.12-26.64,2.88,0,5.7,2.19,14.84,3.35h0a89.1,89.1,0,0,0,8.89.65,61.64,61.64,0,0,0,21-3.46,53.68,53.68,0,0,0,5.85-2.33C199.25,146.68,202.92,158.47,202.92,158.47Z"/><path class="cls-53" d="M191.5,147.42s-.81,12.26,3.9,13.94,7.52-2.89,7.52-2.89l2.35-5Z"/><path class="cls-54" d="M177,132.56s16.8,18.43,28.28,25.91c0,0,7.13-.85,8.52-7.9l-24.52-28.32Z"/><path class="cls-55" d="M207,142.72s-15.7-12-18.56-13a21.46,21.46,0,0,0-3.26,6.28c-1,3.39,16.88,20.19,16.88,20.19s-16.62-13.48-24.22-22.73c0,0,8.4-6,12.3-10.2Z"/><path class="cls-56" d="M186.61,142.78c-.22,1-7.07,2.88-8.94-.74a6.77,6.77,0,0,1-.47-1.09c-1.07-3.13.44-5.6,1.86-6.32l0,0,.1.09C180.16,135.65,186.81,141.87,186.61,142.78Z"/><path class="cls-57" d="M207,142.72l-3.34-3.86s-11.25-5.59-13.52-15.59c0,0,0,0,0,0s2.62-5.34,8.18-5.51c2.22-.07,4.21,2.85,5.74,6.79h0C206.38,130.49,207.64,138.81,207,142.72Z"/><path class="cls-58" d="M202.92,158.47s-8.81,16.65-20,22.2-28.26-1.13-33.78-5.52c-7.53-6-10.3-26.64-7.12-26.64,2.88,0,5.7,2.19,14.84,3.35-.56,0-8.35-.58-9.73,1.62s14.29,25.24,29.9,18.85,12.45-23.22,9.79-23.28h0a53.68,53.68,0,0,0,5.85-2.33C199.25,146.68,202.92,158.47,202.92,158.47Z"/><path class="cls-59" d="M186.61,142.78c-.22,1-7.07,2.88-8.94-.74a6.77,6.77,0,0,1-.47-1.09c1.5,1.89,3.83,1.56,4.53-.52s-2-5-2.55-5.68C180.16,135.65,186.81,141.87,186.61,142.78Z"/><path class="cls-60" d="M207,142.72l-3.34-3.86s-11.25-5.59-13.52-15.59c.27.53,5.68,9,11.47,9.72,4.26.57,2.57-7.91,2.43-8.47h0C206.38,130.49,207.64,138.81,207,142.72Z"/><path class="cls-22" d="M26.77,212.56a10.94,10.94,0,0,0-1.54,7A10.3,10.3,0,0,0,26.77,212.56Z"/><path class="cls-22" d="M11.73,230.58a9.07,9.07,0,0,1,3.13-5.43S13.56,229.76,11.73,230.58Z"/><path class="cls-22" d="M45.9,182.78c-.43-.73,7.9-8.71,10.28-9s-.82.82-2.81,3.79S46.68,184.1,45.9,182.78Z"/><path class="cls-22" d="M58.42,172.07c-.86-1,3.78-2.74,3.78-2.74S59.33,173.11,58.42,172.07Z"/><path class="cls-22" d="M157.6,157.55c-.32,1.91,9.41,1.91,9.24,0S157.92,155.64,157.6,157.55Z"/><path class="cls-22" d="M93.71,256.08c-1.3.6,1.1,7.16,2.88,7S95.22,255.38,93.71,256.08Z"/><ellipse class="cls-61" cx="157.59" cy="96.54" rx="33.86" ry="32.66"/><path class="cls-62" d="M127.57,88.49c.29,6,10.07,8.18,29.08-1.2,15.1-7.44,29.66,1.06,30.91-1.27S173,64.5,155.82,66.66,127.31,83.12,127.57,88.49Z"/></g></g></g></svg>