<svg xmlns="http://www.w3.org/2000/svg" viewBox="0 0 628.21 111.07"><defs><style>.cls-1{fill:#fff;}</style></defs><g id="Capa_2" data-name="Capa 2"><g id="Capa_3" data-name="Capa 3"><path class="cls-1" d="M85.49,90.74a65,65,0,0,0,6.59,17H59c-.41-7.13-1.21-10.09-3.1-17L50.08,69.6H14.94L8.88,92.49c-1.34,5.12-2.55,8.62-3,15.21H0A71,71,0,0,0,5.52,92.62L27.46,10.91C28.54,6.6,28.94,4.44,27.6,0H60.72ZM15.89,66.37H49.14L32.31,4.85Z"/><path class="cls-1" d="M103.11,107.7a204.18,204.18,0,0,0,1.61-30V30a204.25,204.25,0,0,0-1.61-30H130.3a204.25,204.25,0,0,0-1.61,30V77.68a204.18,204.18,0,0,0,1.61,30Z"/><path class="cls-1" d="M170,92.49a99.39,99.39,0,0,0,1.35,15.21H146.05V29.08A196.37,196.37,0,0,0,144.43,0h27.2A196.37,196.37,0,0,0,170,29.08V52.77c7.54-8.61,16.56-13.59,29.08-13.59,14.54,0,34.06,8.75,34.06,35.67S214,110.4,197.47,110.4C182.26,110.4,173.65,102.86,170,92.49Zm37-17.64c0-21.4-6.59-30.42-16-30.42-7.94,0-15.48,5.92-21,13.19V77.55c0,18.17,8.48,26.65,18.85,26.65C201.92,104.2,207,91,207,74.85Z"/><path class="cls-1" d="M243.77,74.85c0-23.42,20.74-35.67,41.87-35.67,23,0,36.62,13.33,36.89,29.35H270a42.81,42.81,0,0,0-.14,4.31c0,17.5,8.35,31.36,25,31.36,11,0,22.21-5.92,27.87-22.21h2.69C320,99.76,308,110.4,286.85,110.4,264.1,110.4,243.77,98.28,243.77,74.85Zm53.58-9.69c0-14.14-3.36-22.62-12.11-22.62-8.08,0-13.6,6.87-14.95,22.62Z"/><path class="cls-1" d="M385.79,55.33c-7.94-2.42-13.19-2.15-26,12.66V79a185.39,185.39,0,0,0,1.61,28.67H334.23A185.39,185.39,0,0,0,335.84,79V70.55a186.35,186.35,0,0,0-1.61-28.68h27.19a170.33,170.33,0,0,0-1.61,21.27C370,49.81,379.46,37.7,400.2,41.87,402,52.24,396.16,58.56,385.79,55.33Z"/><path class="cls-1" d="M418.89,86.7V45.24H404.36V41.87h2.28c19.12,0,18.72-13.33,18.72-29.08h20.19c0,11.58-3.23,23.69-17.63,29.08h34.59v3.37H442.86V90.47c0,10.5,1.75,14.41,6.73,14.41,5.65,0,10-7.27,12.52-24.64h2.83c-3.37,24-11,30.83-24.51,30.83C424.28,111.07,418.89,102.32,418.89,86.7Z"/><path class="cls-1" d="M476.77,83.07V71A183.7,183.7,0,0,0,475,41.87h25.85V91.82c0,7.94,2.42,12.38,8.35,12.38,7.27,0,13.6-5.92,18.71-16L528.06,71a171.17,171.17,0,0,0-1.88-29.08H552V107.7H526.32a141.34,141.34,0,0,0,1.34-14.27c-5.52,9.56-13.73,17-28,17C485.66,110.4,476.77,103.26,476.77,83.07Z"/><path class="cls-1" d="M561.7,90.47c4.58-9.83,18.85-8.08,21.41,2.56,1.35,7.4,4,14,14.54,14,8.08,0,11.58-5,11.58-10.9,0-6.33-3.63-9.16-19.92-16.83-12.26-5.93-24.37-10.91-24.37-22.62,0-13.2,16.56-17.5,28.54-17.5,15.07,0,27.06,6.46,32.31,17-6.19,7.27-15.62,5.12-18.31-3.23-2.16-7-5.12-10.37-13.46-10.37-6.47,0-10.77,2.83-10.77,7.54,0,5.12,4,7.94,17.5,13.87,14.27,6.33,27.46,10.9,27.46,25.17,0,13.06-12.39,21.28-31.5,21.28C579.21,110.4,565.47,103.8,561.7,90.47Z"/></g></g></svg>